<svg width="1340" height="1340" viewBox="0 0 1340 1340" fill="none" xmlns="http://www.w3.org/2000/svg">
<circle cx="670" cy="670" r="670" fill="#F0F0F0"/>
<path d="M978.769 508.587V470H972.769V508.587C971.048 509.283 969.623 510.556 968.738 512.188C967.852 513.82 967.562 515.709 967.917 517.531C968.271 519.354 969.249 520.996 970.681 522.177C972.114 523.357 973.913 524.003 975.769 524.003C977.626 524.003 979.425 523.357 980.857 522.177C982.29 520.996 983.267 519.354 983.622 517.531C983.977 515.709 983.687 513.82 982.801 512.188C981.916 510.556 980.49 509.283 978.769 508.587Z" fill="#E6E6E6"/>
<path d="M992.769 898H951.769V400H935.769V898H894.769C889.91 898 885.099 898.957 880.61 900.816C876.121 902.676 872.042 905.401 868.606 908.837C865.171 912.273 862.445 916.352 860.586 920.841C858.726 925.33 857.769 930.141 857.769 935V935H1029.77V935C1029.77 930.141 1028.81 925.33 1026.95 920.841C1025.09 916.352 1022.37 912.273 1018.93 908.837C1015.5 905.401 1011.42 902.676 1006.93 900.816C1002.44 898.957 997.628 898 992.769 898V898Z" fill="#E6E6E6"/>
<path d="M857.852 474H1029.69L1019.18 342.66C1018.79 338.131 1016.73 333.91 1013.39 330.827C1010.05 327.743 1005.68 326.022 1001.13 326H886.406C881.861 326.022 877.489 327.743 874.149 330.827C870.809 333.91 868.744 338.131 868.36 342.66L857.852 474Z" fill="#1C58B5"/>
<path d="M371.098 783.536H895.576V729.989C895.576 585.391 777.936 467.75 633.337 467.75C488.738 467.75 371.098 585.391 371.098 729.989V783.536Z" fill="#3F3D56"/>
<path opacity="0.2" d="M371.098 783.536H895.576V729.989C895.576 585.391 777.936 467.75 633.337 467.75C488.738 467.75 371.098 585.391 371.098 729.989V783.536Z" fill="black"/>
<path d="M439.072 802.071H842.705C842.321 780.835 833.622 760.598 818.477 745.707C803.332 730.817 782.95 722.462 761.711 722.438H520.066C498.827 722.462 478.445 730.817 463.3 745.707C448.155 760.598 439.456 780.835 439.072 802.071V802.071Z" fill="#1C58B5"/>
<path d="M391.006 793.833C435.744 793.833 472.012 757.565 472.012 712.827C472.012 668.089 435.744 631.821 391.006 631.821C346.268 631.821 310 668.089 310 712.827C310 757.565 346.268 793.833 391.006 793.833Z" fill="#3F3D56"/>
<path d="M882.533 793.833C927.271 793.833 963.539 757.565 963.539 712.827C963.539 668.089 927.271 631.821 882.533 631.821C837.795 631.821 801.527 668.089 801.527 712.827C801.527 757.565 837.795 793.833 882.533 793.833Z" fill="#3F3D56"/>
<path d="M821.435 754.017V784.222H447.298V754.017H363.546V901.239C363.546 910.259 367.13 918.91 373.508 925.288C379.886 931.667 388.537 935.25 397.557 935.25H871.176C875.643 935.25 880.065 934.37 884.192 932.661C888.318 930.952 892.067 928.447 895.226 925.289C898.384 922.13 900.889 918.381 902.598 914.255C904.307 910.128 905.187 905.705 905.187 901.239V754.017H821.435Z" fill="#3F3D56"/>
<path opacity="0.2" d="M391.006 729.303C400.105 729.303 407.482 721.926 407.482 712.827C407.482 703.728 400.105 696.351 391.006 696.351C381.907 696.351 374.53 703.728 374.53 712.827C374.53 721.926 381.907 729.303 391.006 729.303Z" fill="black"/>
<path opacity="0.2" d="M882.533 729.303C891.632 729.303 899.009 721.926 899.009 712.827C899.009 703.728 891.632 696.351 882.533 696.351C873.434 696.351 866.057 703.728 866.057 712.827C866.057 721.926 873.434 729.303 882.533 729.303Z" fill="black"/>
<path d="M663.178 458.496C663.178 458.496 664.798 489.271 676.136 495.75C687.474 502.229 676.136 545.961 676.136 545.961L622.685 547.581L619.446 495.75C619.446 495.75 625.924 474.694 622.685 464.975C619.446 455.257 663.178 458.496 663.178 458.496Z" fill="#FFB8B8"/>
<path d="M723.107 886.102L703.671 908.778L734.446 937.933L750.643 905.539L723.107 886.102Z" fill="#FFB8B8"/>
<path d="M585.431 886.102L604.868 908.778L574.093 937.933L557.896 905.539L585.431 886.102Z" fill="#FFB8B8"/>
<path d="M712.579 671.49C712.579 671.49 829.199 710.363 822.72 747.616C816.241 784.87 766.03 916.067 766.03 916.067C766.03 916.067 738.495 916.067 717.438 886.912L732.016 854.518C732.016 854.518 725.537 836.701 736.875 833.461C748.213 830.222 754.692 773.532 754.692 773.532C754.692 773.532 672.086 767.053 654.269 736.278L621.875 658.532L712.579 671.49Z" fill="#2F2E41"/>
<path d="M595.96 671.49C595.96 671.49 479.34 710.363 485.819 747.616C492.298 784.87 542.509 916.067 542.509 916.067C542.509 916.067 570.044 916.067 591.1 886.912L576.523 854.518C576.523 854.518 583.002 836.701 571.664 833.461C560.326 830.222 553.847 773.532 553.847 773.532C553.847 773.532 636.453 767.053 654.269 736.278L686.664 658.532L595.96 671.49Z" fill="#2F2E41"/>
<path d="M728.777 925.785C728.777 925.785 744.974 911.208 746.593 922.546C748.213 933.884 744.974 979.236 744.974 979.236C744.974 979.236 761.171 1013.25 736.875 1013.25C712.579 1013.25 701.241 987.334 704.481 961.419C707.72 935.503 693.143 925.785 693.143 925.785C693.143 925.785 675.326 890.151 693.143 886.912C710.96 883.672 717.439 891.771 717.439 891.771C717.439 891.771 710.96 920.926 728.777 925.785Z" fill="#2F2E41"/>
<path d="M579.762 925.785C579.762 925.785 563.565 911.208 561.946 922.546C560.326 933.884 563.565 979.236 563.565 979.236C563.565 979.236 547.368 1013.25 571.664 1013.25C595.96 1013.25 607.298 987.334 604.058 961.419C600.819 935.503 615.396 925.785 615.396 925.785C615.396 925.785 633.213 890.151 615.396 886.912C597.579 883.672 591.1 891.771 591.1 891.771C591.1 891.771 597.579 920.926 579.762 925.785Z" fill="#2F2E41"/>
<path d="M638.072 477.123C658.647 477.123 675.326 460.444 675.326 439.87C675.326 419.295 658.647 402.616 638.072 402.616C617.498 402.616 600.819 419.295 600.819 439.87C600.819 460.444 617.498 477.123 638.072 477.123Z" fill="#FFB8B8"/>
<path d="M643.741 503.849L621.065 486.032L565.995 511.947L564.375 659.342C564.375 659.342 530.361 675.539 540.079 696.595C540.079 696.595 569.234 703.074 582.192 716.032C595.15 728.989 668.037 711.173 698.812 701.454C729.586 691.736 737.685 680.398 737.685 680.398L706.91 636.666L724.727 524.905L669.663 487.884L643.741 503.849Z" fill="#E6E6E6"/>
<path d="M683.363 414.514C682.551 413.413 681.81 412.261 681.142 411.067C679.987 408.254 681.812 404.939 680.107 402.311C678.366 399.63 673.948 399.064 670.942 397.242C666.311 394.436 665.469 388.929 661.13 385.836C658.004 383.607 653.546 383.007 649.369 383.134C645.191 383.261 641.07 384.016 636.89 384.099C631.249 384.225 625.652 383.08 620.513 380.75L623.596 386.781C620.17 386.034 616.897 384.707 613.918 382.858C612.555 384.549 615.05 387.117 613.503 388.703C612.869 389.215 612.119 389.563 611.318 389.716C605.372 391.406 599.772 394.137 594.781 397.784C593.625 398.519 592.669 399.528 591.998 400.722C591.194 402.503 591.907 404.47 591.846 406.363C591.735 409.804 589.108 412.804 587.244 415.904C585.381 419.003 584.374 423.022 587.139 425.653C587.811 426.187 588.456 426.756 589.07 427.356C591.84 430.623 586.937 435.408 589.3 438.875C590.326 440.38 592.429 441.142 594.257 442.031C597.758 443.668 600.704 446.294 602.732 449.584L601.311 439.156C601.236 438.898 601.223 438.627 601.272 438.363C601.321 438.099 601.431 437.851 601.594 437.637C602.282 436.936 603.723 437.215 604.673 436.751C605.718 436.24 605.797 435.067 605.755 434.085L605.436 426.514C605.292 423.11 605.252 422.658 607.759 419.909C609.511 417.99 612.267 416.831 615.035 415.979C621.36 414.032 628.163 413.359 634.888 412.701C642.697 411.937 651.49 408.148 657.554 412.171C662.518 415.464 664.169 420.877 666.561 425.678C668.711 429.993 674.229 442.698 678.822 435.82C681.707 431.501 686.12 419.323 683.363 414.514Z" fill="#2F2E41"/>
<path d="M644.468 429.063C644.314 429.063 644.167 429.124 644.059 429.233C643.95 429.341 643.889 429.488 643.889 429.642V445.239C643.889 445.392 643.95 445.539 644.059 445.648C644.167 445.756 644.314 445.817 644.468 445.817H671.317C671.471 445.817 671.618 445.756 671.727 445.648C671.835 445.539 671.896 445.392 671.896 445.239V429.642C671.896 429.488 671.835 429.341 671.727 429.233C671.618 429.124 671.471 429.063 671.317 429.063L644.468 429.063Z" fill="#3F3D56"/>
<path d="M647.468 430.438C647.182 430.439 646.908 430.553 646.706 430.755C646.504 430.957 646.39 431.231 646.39 431.517V443.363C646.39 443.649 646.504 443.923 646.706 444.126C646.908 444.328 647.182 444.442 647.468 444.442H668.317C668.603 444.442 668.877 444.328 669.079 444.126C669.281 443.923 669.395 443.649 669.395 443.363V431.517C669.395 431.231 669.281 430.957 669.079 430.755C668.877 430.553 668.603 430.439 668.317 430.438H647.468Z" fill="#FF6584"/>
<path d="M644.77 434.201H630.784V437.44H644.77V434.201Z" fill="#3F3D56"/>
<path d="M606.447 429.063C606.293 429.063 606.146 429.124 606.038 429.233C605.929 429.341 605.868 429.488 605.868 429.642V445.239C605.868 445.392 605.929 445.539 606.038 445.648C606.146 445.756 606.293 445.817 606.447 445.817H633.297C633.45 445.817 633.597 445.756 633.706 445.648C633.814 445.539 633.875 445.392 633.875 445.239V429.642C633.875 429.488 633.814 429.341 633.706 429.233C633.597 429.124 633.45 429.063 633.297 429.063L606.447 429.063Z" fill="#3F3D56"/>
<path d="M609.448 430.438C609.162 430.439 608.887 430.552 608.685 430.755C608.483 430.957 608.369 431.231 608.369 431.517V443.363C608.369 443.649 608.483 443.924 608.685 444.126C608.887 444.328 609.162 444.442 609.448 444.442H630.296C630.582 444.442 630.856 444.328 631.058 444.126C631.261 443.924 631.375 443.649 631.375 443.363V431.517C631.375 431.231 631.261 430.957 631.058 430.755C630.856 430.552 630.582 430.439 630.296 430.438H609.448Z" fill="#1C58B5"/>
<path d="M591.769 623.75H684.769C688.482 623.75 692.043 625.225 694.669 627.85C697.294 630.476 698.769 634.037 698.769 637.75V637.75H577.769C577.769 634.037 579.244 630.476 581.87 627.85C584.495 625.225 588.056 623.75 591.769 623.75V623.75Z" fill="#3F3D56"/>
<path d="M691.269 622.75C690.725 622.752 690.185 622.844 689.67 623.022C689.494 622.312 689.063 621.691 688.461 621.277C687.858 620.862 687.124 620.683 686.398 620.772C685.671 620.862 685.003 621.214 684.519 621.763C684.035 622.311 683.768 623.018 683.769 623.75C683.769 623.765 683.773 623.779 683.773 623.794C683.398 623.829 683.028 623.906 682.67 624.022C682.569 623.618 682.384 623.24 682.129 622.911C681.874 622.582 681.553 622.31 681.187 622.111C682.148 621.58 682.909 620.748 683.351 619.743C683.914 619.799 684.481 619.735 685.017 619.557C685.553 619.379 686.046 619.09 686.463 618.708C686.88 618.327 687.211 617.862 687.437 617.344C687.662 616.825 687.775 616.266 687.769 615.701C687.763 615.136 687.639 614.578 687.403 614.065C687.167 613.551 686.826 613.093 686.402 612.721C685.977 612.348 685.479 612.069 684.939 611.901C684.399 611.734 683.83 611.683 683.269 611.75C682.725 611.752 682.185 611.844 681.67 612.022C681.578 611.629 681.407 611.259 681.167 610.933C680.928 610.608 680.625 610.335 680.277 610.13C679.929 609.925 679.543 609.792 679.142 609.74C678.742 609.689 678.335 609.719 677.946 609.829C677.557 609.938 677.195 610.126 676.881 610.38C676.566 610.634 676.307 610.948 676.118 611.305C675.928 611.662 675.813 612.054 675.78 612.456C675.746 612.859 675.794 613.264 675.921 613.647C675.802 613.73 675.69 613.824 675.578 613.917C675.013 613.43 674.278 613.186 673.534 613.236C673.149 612.132 672.388 611.198 671.384 610.598C670.38 609.999 669.197 609.771 668.043 609.956C666.888 610.141 665.835 610.727 665.069 611.61C664.302 612.493 663.871 613.618 663.85 614.787C663.449 614.819 663.053 614.898 662.67 615.022C662.627 614.853 662.569 614.688 662.498 614.529C662.893 614.18 663.21 613.753 663.429 613.274C663.648 612.796 663.764 612.276 663.769 611.75C663.699 610.624 663.187 609.572 662.344 608.823C661.501 608.073 660.396 607.688 659.269 607.75C658.725 607.752 658.185 607.844 657.67 608.022C657.578 607.629 657.407 607.259 657.167 606.933C656.928 606.608 656.625 606.335 656.277 606.13C655.929 605.925 655.543 605.792 655.142 605.74C654.742 605.689 654.335 605.719 653.946 605.829C653.557 605.938 653.195 606.126 652.881 606.38C652.566 606.634 652.307 606.948 652.118 607.305C651.928 607.662 651.813 608.054 651.78 608.456C651.746 608.859 651.794 609.264 651.921 609.647C651.292 610.085 650.771 610.661 650.401 611.332C650.03 612.003 649.819 612.751 649.784 613.516C649.742 613.554 649.693 613.585 649.653 613.624C649.728 613.339 649.767 613.045 649.769 612.75C649.699 611.624 649.187 610.572 648.344 609.823C647.501 609.073 646.396 608.688 645.269 608.75C644.725 608.752 644.185 608.844 643.67 609.022C643.578 608.629 643.407 608.259 643.167 607.933C642.928 607.608 642.625 607.335 642.277 607.13C641.929 606.925 641.543 606.792 641.142 606.74C640.742 606.689 640.335 606.719 639.946 606.829C639.557 606.938 639.195 607.126 638.881 607.38C638.566 607.634 638.307 607.948 638.118 608.305C637.928 608.662 637.813 609.054 637.78 609.456C637.746 609.859 637.794 610.264 637.921 610.647C637.257 611.106 636.715 611.719 636.34 612.434C635.965 613.148 635.769 613.943 635.769 614.75C635.769 615.557 635.965 616.352 636.34 617.066C636.715 617.781 637.257 618.394 637.921 618.853C637.719 619.434 637.719 620.066 637.921 620.647C637.42 620.997 636.987 621.435 636.642 621.939C636.457 621.267 636.042 620.682 635.47 620.284C634.898 619.886 634.205 619.701 633.511 619.761C632.817 619.821 632.166 620.122 631.67 620.612C631.175 621.102 630.867 621.751 630.8 622.444C630.399 622.209 629.966 622.034 629.515 621.925C630.325 621.39 630.962 620.632 631.351 619.743C631.913 619.799 632.481 619.735 633.017 619.557C633.553 619.379 634.046 619.09 634.463 618.708C634.88 618.327 635.211 617.862 635.436 617.344C635.662 616.825 635.775 616.266 635.769 615.701C635.763 615.136 635.639 614.578 635.403 614.065C635.167 613.551 634.826 613.093 634.401 612.721C633.977 612.348 633.479 612.069 632.939 611.901C632.399 611.734 631.83 611.683 631.269 611.75C630.725 611.752 630.185 611.844 629.67 612.022C629.578 611.629 629.407 611.259 629.167 610.933C628.928 610.608 628.625 610.335 628.277 610.13C627.929 609.925 627.543 609.792 627.142 609.74C626.742 609.689 626.335 609.719 625.946 609.829C625.557 609.938 625.195 610.126 624.881 610.38C624.566 610.634 624.307 610.948 624.118 611.305C623.928 611.662 623.813 612.054 623.78 612.456C623.746 612.859 623.794 613.264 623.921 613.647C623.857 613.692 623.799 613.744 623.737 613.792C623.581 613.777 623.43 613.75 623.269 613.75C622.725 613.752 622.185 613.844 621.67 614.022C621.651 613.947 621.62 613.877 621.596 613.804C621.693 613.359 621.685 612.897 621.573 612.455C621.461 612.014 621.249 611.604 620.952 611.258C620.655 610.912 620.283 610.64 619.863 610.463C619.443 610.286 618.988 610.208 618.533 610.236C618.273 609.511 617.848 608.856 617.293 608.322C616.737 607.788 616.066 607.39 615.331 607.159C614.596 606.928 613.817 606.87 613.056 606.99C612.295 607.11 611.572 607.404 610.943 607.849C610.315 608.295 609.798 608.88 609.433 609.558C609.068 610.237 608.865 610.991 608.84 611.761C608.814 612.531 608.968 613.296 609.287 613.997C609.607 614.698 610.085 615.316 610.683 615.802C610.339 615.841 609.999 615.915 609.67 616.022C609.552 615.535 609.312 615.085 608.973 614.715C608.635 614.345 608.208 614.067 607.732 613.906C607.257 613.746 606.749 613.708 606.255 613.797C605.761 613.886 605.298 614.098 604.908 614.414C604.463 613.885 603.905 613.461 603.276 613.173C602.646 612.885 601.961 612.741 601.269 612.75C600.725 612.752 600.185 612.844 599.67 613.022C599.578 612.629 599.407 612.259 599.167 611.933C598.928 611.608 598.625 611.335 598.277 611.13C597.929 610.925 597.543 610.792 597.142 610.74C596.742 610.689 596.335 610.719 595.946 610.829C595.557 610.938 595.195 611.126 594.88 611.38C594.566 611.634 594.307 611.948 594.117 612.305C593.928 612.662 593.813 613.054 593.78 613.456C593.746 613.859 593.794 614.264 593.921 614.647C593.257 615.106 592.715 615.719 592.34 616.434C591.965 617.148 591.769 617.943 591.769 618.75C591.769 618.765 591.774 618.78 591.774 618.795C591.065 618.688 590.34 618.766 589.67 619.022C589.578 618.629 589.407 618.259 589.167 617.933C588.928 617.608 588.625 617.335 588.277 617.13C587.929 616.925 587.543 616.792 587.142 616.74C586.741 616.689 586.335 616.719 585.946 616.829C585.557 616.938 585.195 617.126 584.88 617.38C584.566 617.634 584.307 617.948 584.117 618.305C583.928 618.662 583.813 619.054 583.779 619.456C583.746 619.859 583.794 620.264 583.921 620.647C582.957 621.3 582.252 622.27 581.929 623.389C581.606 624.508 581.685 625.705 582.153 626.771C582.621 627.838 583.448 628.707 584.49 629.227C585.532 629.746 586.723 629.885 587.857 629.617C588.037 630.66 588.545 631.619 589.307 632.354C590.07 633.089 591.046 633.562 592.095 633.705C593.144 633.847 594.212 633.652 595.142 633.147C596.073 632.642 596.818 631.853 597.271 630.896C600.872 631.364 604.528 631.2 608.073 630.409C608.404 631.357 609.012 632.182 609.82 632.777C610.627 633.373 611.596 633.711 612.598 633.747C613.601 633.783 614.591 633.515 615.439 632.979C616.287 632.443 616.953 631.664 617.351 630.743C618.08 630.728 618.797 630.551 619.449 630.224C619.905 631.03 620.577 631.693 621.39 632.138C622.203 632.583 623.124 632.793 624.049 632.743C624.974 632.693 625.867 632.385 626.627 631.855C627.387 631.325 627.984 630.594 628.351 629.743C629.463 629.532 630.614 629.717 631.604 630.267C632.594 630.816 633.36 631.695 633.769 632.75C634.438 631.834 635.298 631.076 636.29 630.527C637.282 629.978 638.382 629.652 639.513 629.571C640.518 629.851 641.586 629.802 642.561 629.429C643.536 629.057 644.365 628.382 644.928 627.503C644.613 628.721 644.77 630.013 645.366 631.12C645.962 632.228 646.953 633.07 648.142 633.479C649.332 633.887 650.631 633.833 651.782 633.326C652.933 632.819 653.85 631.896 654.351 630.743C655.08 630.728 655.797 630.551 656.449 630.224C656.905 631.03 657.577 631.693 658.39 632.138C659.203 632.583 660.124 632.793 661.049 632.743C661.974 632.693 662.867 632.385 663.627 631.855C664.387 631.325 664.984 630.594 665.351 629.743C666.08 629.728 666.797 629.551 667.449 629.224C667.8 629.85 668.284 630.393 668.867 630.813C669.449 631.234 670.116 631.523 670.822 631.66C671.527 631.796 672.254 631.778 672.952 631.605C673.649 631.433 674.301 631.11 674.861 630.66C675.035 631.617 675.485 632.502 676.155 633.206C676.826 633.91 677.688 634.402 678.635 634.621C679.582 634.841 680.573 634.778 681.485 634.442C682.397 634.105 683.19 633.508 683.767 632.726C684.367 633.186 685.065 633.502 685.806 633.652C686.547 633.801 687.312 633.78 688.044 633.588C688.776 633.397 689.454 633.041 690.027 632.548C690.6 632.055 691.053 631.437 691.351 630.743C691.913 630.798 692.481 630.735 693.017 630.557C693.553 630.379 694.046 630.09 694.463 629.708C694.88 629.327 695.211 628.862 695.436 628.344C695.662 627.825 695.775 627.266 695.769 626.701C695.763 626.136 695.639 625.578 695.403 625.065C695.167 624.551 694.826 624.093 694.401 623.72C693.977 623.348 693.478 623.069 692.939 622.901C692.399 622.734 691.83 622.683 691.269 622.75L691.269 622.75ZM601.891 620.686C601.886 620.71 601.882 620.735 601.877 620.759C601.841 620.758 601.806 620.75 601.769 620.75C601.62 620.754 601.471 620.769 601.324 620.795C601.332 620.777 601.343 620.761 601.351 620.743C601.532 620.734 601.712 620.715 601.891 620.686V620.686ZM643.67 619.022C643.656 618.964 643.631 618.91 643.613 618.854C644.376 618.324 644.978 617.594 645.351 616.743C646.009 616.739 646.658 616.597 647.257 616.326C647.856 616.055 648.392 615.66 648.828 615.168C648.79 615.36 648.77 615.555 648.769 615.75C648.774 616.055 648.825 616.358 648.921 616.647C648.063 617.246 647.413 618.098 647.062 619.084C645.975 618.661 644.772 618.639 643.67 619.022V619.022ZM673.621 619.395C673.619 619.334 673.626 619.271 673.622 619.21C673.75 619.209 673.877 619.201 674.003 619.184C674.197 619.831 674.521 620.431 674.956 620.949C674.862 620.975 674.762 620.991 674.67 621.022C674.509 620.379 674.14 619.807 673.621 619.395V619.395Z" fill="#F9A825"/>
<path d="M587.843 628.75C586.424 628.75 585.021 629.039 583.718 629.599C582.415 630.159 581.239 630.979 580.263 632.009C579.288 633.038 578.532 634.256 578.043 635.587C577.553 636.919 577.34 638.336 577.416 639.752L584.187 732.867C584.33 735.536 585.491 738.049 587.431 739.887C589.371 741.726 591.942 742.75 594.614 742.75H681.925C684.597 742.75 687.168 741.726 689.108 739.887C691.048 738.049 692.209 735.536 692.351 732.867L699.123 639.752C699.199 638.336 698.986 636.919 698.496 635.587C698.007 634.256 697.251 633.038 696.275 632.009C695.3 630.979 694.124 630.159 692.821 629.599C691.518 629.039 690.115 628.75 688.696 628.75H587.843Z" fill="#3F3D56"/>
<path d="M598.77 628.75H592.77V742.75H598.77V628.75Z" fill="#1C58B5"/>
<path d="M615.77 628.75H609.77V742.75H615.77V628.75Z" fill="#1C58B5"/>
<path d="M632.77 628.75H626.77V742.75H632.77V628.75Z" fill="#1C58B5"/>
<path d="M649.77 628.75H643.77V742.75H649.77V628.75Z" fill="#1C58B5"/>
<path d="M666.77 628.75H660.77V742.75H666.77V628.75Z" fill="#1C58B5"/>
<path d="M683.77 628.75H677.77V742.75H683.77V628.75Z" fill="#1C58B5"/>
<path d="M677.755 685.257L658.319 696.595C658.319 696.595 611.347 735.468 643.741 741.947C676.136 748.426 684.234 714.412 684.234 714.412L695.572 701.454L677.755 685.257Z" fill="#FFB8B8"/>
<path d="M585.431 677.158L604.868 688.496C604.868 688.496 651.84 727.37 619.446 733.849C587.051 740.327 578.953 706.313 578.953 706.313L567.615 693.356L585.431 677.158Z" fill="#FFB8B8"/>
<path d="M703.671 523.285L724.727 524.905C724.727 524.905 740.924 539.482 739.305 558.919C739.305 558.919 753.882 601.032 750.643 618.849C750.643 618.849 753.882 648.003 749.023 659.342C744.164 670.68 703.671 714.412 703.671 714.412C703.671 714.412 666.417 685.257 668.037 683.637L716.629 635.046L692.333 602.651L703.671 523.285Z" fill="#E6E6E6"/>
<path d="M565.995 511.947L565.185 512.757C565.185 512.757 528.741 528.144 530.361 547.581C530.361 547.581 515.784 589.694 519.023 607.511C519.023 607.511 515.784 636.666 520.643 648.004C525.502 659.342 565.995 703.074 565.995 703.074C565.995 703.074 603.248 673.919 601.629 672.299L553.037 623.708L577.333 591.314L565.995 511.947Z" fill="#E6E6E6"/>
</svg>
