<svg width="512" height="384" viewBox="0 0 512 384" fill="none" xmlns="http://www.w3.org/2000/svg">
<path d="M488 0H480V20C480 26.6 474.6 32 468 32H428C421.4 32 416 26.6 416 20V0H96V20C96 26.6 90.6 32 84 32H44C37.4 32 32 26.6 32 20V0H24C10.7 0 0 10.7 0 24V360C0 373.3 10.7 384 24 384H32V364C32 357.4 37.4 352 44 352H84C90.6 352 96 357.4 96 364V384H416V364C416 357.4 421.4 352 428 352H468C474.6 352 480 357.4 480 364V384H488C501.3 384 512 373.3 512 360V24C512 10.7 501.3 0 488 0ZM96 308C96 314.6 90.6 320 84 320H44C37.4 320 32 314.6 32 308V268C32 261.4 37.4 256 44 256H84C90.6 256 96 261.4 96 268V308ZM96 212C96 218.6 90.6 224 84 224H44C37.4 224 32 218.6 32 212V172C32 165.4 37.4 160 44 160H84C90.6 160 96 165.4 96 172V212ZM96 116C96 122.6 90.6 128 84 128H44C37.4 128 32 122.6 32 116V76C32 69.4 37.4 64 44 64H84C90.6 64 96 69.4 96 76V116ZM368 324C368 330.6 362.6 336 356 336H156C149.4 336 144 330.6 144 324V228C144 221.4 149.4 216 156 216H356C362.6 216 368 221.4 368 228V324ZM368 156C368 162.6 362.6 168 356 168H156C149.4 168 144 162.6 144 156V60C144 53.4 149.4 48 156 48H356C362.6 48 368 53.4 368 60V156ZM480 308C480 314.6 474.6 320 468 320H428C421.4 320 416 314.6 416 308V268C416 261.4 421.4 256 428 256H468C474.6 256 480 261.4 480 268V308ZM480 212C480 218.6 474.6 224 468 224H428C421.4 224 416 218.6 416 212V172C416 165.4 421.4 160 428 160H468C474.6 160 480 165.4 480 172V212ZM480 116C480 122.6 474.6 128 468 128H428C421.4 128 416 122.6 416 116V76C416 69.4 421.4 64 428 64H468C474.6 64 480 69.4 480 76V116Z" fill="#3061AC"/>
</svg>
