<svg width="182" height="97" viewBox="0 0 182 97" fill="none" xmlns="http://www.w3.org/2000/svg">
<path d="M84.8281 10H83.4375V13.4766C83.4375 14.6238 82.4988 15.5625 81.3516 15.5625H74.3984C73.2512 15.5625 72.3125 14.6238 72.3125 13.4766V10H16.6875V13.4766C16.6875 14.6238 15.7488 15.5625 14.6016 15.5625H7.64844C6.50117 15.5625 5.5625 14.6238 5.5625 13.4766V10H4.17187C1.85996 10 0 11.86 0 14.1719V72.5781C0 74.89 1.85996 76.75 4.17187 76.75H5.5625V73.2734C5.5625 72.1262 6.50117 71.1875 7.64844 71.1875H14.6016C15.7488 71.1875 16.6875 72.1262 16.6875 73.2734V76.75H72.3125V73.2734C72.3125 72.1262 73.2512 71.1875 74.3984 71.1875H81.3516C82.4988 71.1875 83.4375 72.1262 83.4375 73.2734V76.75H84.8281C87.14 76.75 89 74.89 89 72.5781V14.1719C89 11.86 87.14 10 84.8281 10ZM16.6875 63.5391C16.6875 64.6863 15.7488 65.625 14.6016 65.625H7.64844C6.50117 65.625 5.5625 64.6863 5.5625 63.5391V56.5859C5.5625 55.4387 6.50117 54.5 7.64844 54.5H14.6016C15.7488 54.5 16.6875 55.4387 16.6875 56.5859V63.5391ZM16.6875 46.8516C16.6875 47.9988 15.7488 48.9375 14.6016 48.9375H7.64844C6.50117 48.9375 5.5625 47.9988 5.5625 46.8516V39.8984C5.5625 38.7512 6.50117 37.8125 7.64844 37.8125H14.6016C15.7488 37.8125 16.6875 38.7512 16.6875 39.8984V46.8516ZM16.6875 30.1641C16.6875 31.3113 15.7488 32.25 14.6016 32.25H7.64844C6.50117 32.25 5.5625 31.3113 5.5625 30.1641V23.2109C5.5625 22.0637 6.50117 21.125 7.64844 21.125H14.6016C15.7488 21.125 16.6875 22.0637 16.6875 23.2109V30.1641ZM63.9687 66.3203C63.9687 67.4676 63.0301 68.4062 61.8828 68.4062H27.1172C25.9699 68.4062 25.0312 67.4676 25.0312 66.3203V49.6328C25.0312 48.4855 25.9699 47.5469 27.1172 47.5469H61.8828C63.0301 47.5469 63.9687 48.4855 63.9687 49.6328V66.3203ZM63.9687 37.1172C63.9687 38.2645 63.0301 39.2031 61.8828 39.2031H27.1172C25.9699 39.2031 25.0312 38.2645 25.0312 37.1172V20.4297C25.0312 19.2824 25.9699 18.3437 27.1172 18.3437H61.8828C63.0301 18.3437 63.9687 19.2824 63.9687 20.4297V37.1172ZM83.4375 63.5391C83.4375 64.6863 82.4988 65.625 81.3516 65.625H74.3984C73.2512 65.625 72.3125 64.6863 72.3125 63.5391V56.5859C72.3125 55.4387 73.2512 54.5 74.3984 54.5H81.3516C82.4988 54.5 83.4375 55.4387 83.4375 56.5859V63.5391ZM83.4375 46.8516C83.4375 47.9988 82.4988 48.9375 81.3516 48.9375H74.3984C73.2512 48.9375 72.3125 47.9988 72.3125 46.8516V39.8984C72.3125 38.7512 73.2512 37.8125 74.3984 37.8125H81.3516C82.4988 37.8125 83.4375 38.7512 83.4375 39.8984V46.8516ZM83.4375 30.1641C83.4375 31.3113 82.4988 32.25 81.3516 32.25H74.3984C73.2512 32.25 72.3125 31.3113 72.3125 30.1641V23.2109C72.3125 22.0637 73.2512 21.125 74.3984 21.125H81.3516C82.4988 21.125 83.4375 22.0637 83.4375 23.2109V30.1641Z" fill="#3061AC"/>
<g filter="url(#filter0_d)">
<path d="M61.104 49.9854H64.6357C67.9364 49.9854 70.4062 49.3391 72.0451 48.0465C73.6839 46.7308 74.5034 44.8265 74.5034 42.3336C74.5034 39.8177 73.8109 37.9595 72.426 36.7592C71.0641 35.559 68.9174 34.9588 65.986 34.9588H61.104V49.9854ZM85.3405 41.9528C85.3405 47.4002 83.6325 51.5666 80.2163 54.4519C76.8231 57.3372 71.9874 58.7798 65.709 58.7798H61.104V76.7841H50.3707V26.1644H66.5399C72.6799 26.1644 77.3425 27.4917 80.5279 30.1461C83.7363 32.7775 85.3405 36.7131 85.3405 41.9528ZM110.096 44.8612C107.857 44.8612 106.103 45.5767 104.834 47.0078C103.564 48.4158 102.837 50.424 102.652 53.0323H117.471C117.425 50.424 116.744 48.4158 115.428 47.0078C114.113 45.5767 112.335 44.8612 110.096 44.8612ZM111.585 77.4766C105.353 77.4766 100.483 75.7569 96.9741 72.3176C93.4655 68.8784 91.7113 64.008 91.7113 57.7065C91.7113 51.2203 93.3271 46.2115 96.5586 42.6799C99.8132 39.1252 104.303 37.3478 110.027 37.3478C115.498 37.3478 119.756 38.9059 122.803 42.022C125.85 45.1381 127.374 49.443 127.374 54.9366V60.0609H102.41C102.525 63.0616 103.414 65.4045 105.076 67.0895C106.738 68.7745 109.069 69.617 112.07 69.617C114.401 69.617 116.606 69.3746 118.683 68.8899C120.76 68.4052 122.93 67.6319 125.192 66.5701V74.7413C123.346 75.6646 121.372 76.3455 119.272 76.7841C117.171 77.2457 114.609 77.4766 111.585 77.4766ZM146.52 76.7841H135.96V22.9098H146.52V76.7841ZM168.195 76.7841H157.635V38.0749H168.195V76.7841ZM157.115 33.8162V32.8814C161.085 28.2649 163.798 24.791 165.252 22.4597H177.093V23.1868C175.893 24.3871 173.838 26.176 170.93 28.5534C168.045 30.9079 165.783 32.6621 164.144 33.8162H157.115Z" fill="white"/>
</g>
<defs>
<filter id="filter0_d" x="46.2761" y="22.4597" width="134.911" height="63.2058" filterUnits="userSpaceOnUse" color-interpolation-filters="sRGB">
<feFlood flood-opacity="0" result="BackgroundImageFix"/>
<feColorMatrix in="SourceAlpha" type="matrix" values="0 0 0 0 0 0 0 0 0 0 0 0 0 0 0 0 0 0 127 0"/>
<feOffset dy="4.09449"/>
<feGaussianBlur stdDeviation="2.04724"/>
<feColorMatrix type="matrix" values="0 0 0 0 0 0 0 0 0 0 0 0 0 0 0 0 0 0 0.25 0"/>
<feBlend mode="normal" in2="BackgroundImageFix" result="effect1_dropShadow"/>
<feBlend mode="normal" in="SourceGraphic" in2="effect1_dropShadow" result="shape"/>
</filter>
</defs>
</svg>
