<svg width="1340" height="1340" viewBox="0 0 1340 1340" fill="none" xmlns="http://www.w3.org/2000/svg">
<circle cx="670" cy="670" r="670" fill="#F0F0F0"/>
<path d="M1190.82 878.648H923.674V880.522H1190.82V878.648Z" fill="#3F3D56"/>
<path d="M1214.25 915.205H994.913V917.079H1214.25V915.205Z" fill="#3F3D56"/>
<path d="M1050.21 545.233H1048.33V880.477H1050.21V545.233Z" fill="#3F3D56"/>
<path d="M1049.63 851.747C1069.82 851.747 1086.19 814.397 1086.19 768.323C1086.19 722.249 1069.82 684.899 1049.63 684.899C1029.44 684.899 1013.08 722.249 1013.08 768.323C1013.08 814.397 1029.44 851.747 1049.63 851.747Z" fill="#3F3D56"/>
<path d="M1049.63 661.465C1069.82 661.465 1086.19 624.114 1086.19 578.04C1086.19 531.966 1069.82 494.616 1049.63 494.616C1029.44 494.616 1013.08 531.966 1013.08 578.04C1013.08 624.114 1029.44 661.465 1049.63 661.465Z" fill="#3F3D56"/>
<path d="M1050.53 509.883L1048.73 509.345C1048.85 508.966 1059.87 471.197 1041.77 446.884C1031.55 433.152 1014.01 426.189 989.642 426.189V424.315C1014.64 424.315 1032.69 431.534 1043.28 445.772C1061.94 470.847 1050.65 509.496 1050.53 509.883Z" fill="#3F3D56"/>
<path d="M989.642 448.686C1002.58 448.686 1013.08 438.194 1013.08 425.252C1013.08 412.31 1002.58 401.818 989.642 401.818C976.7 401.818 966.208 412.31 966.208 425.252C966.208 438.194 976.7 448.686 989.642 448.686Z" fill="#1C58B5"/>
<path d="M966.337 854.381H941.966V830.01H966.337V854.381ZM943.841 852.506H964.462V831.884H943.841V852.506Z" fill="#3F3D56"/>
<path d="M380.9 807.522C380.931 870.553 343.47 892.577 297.251 892.599C296.177 892.6 295.109 892.588 294.046 892.565C291.904 892.52 289.784 892.423 287.687 892.275C245.971 889.342 213.548 866.222 213.52 807.604C213.49 746.941 290.984 670.348 296.796 664.684C296.801 664.684 296.801 664.684 296.806 664.679C297.027 664.463 297.14 664.355 297.14 664.355C297.14 664.355 380.869 744.497 380.9 807.522Z" fill="#1C58B5"/>
<path d="M294.2 882.959L324.788 840.177L294.125 887.654L294.046 892.565C291.904 892.52 289.784 892.423 287.686 892.275L290.953 829.217L290.927 828.729L290.984 828.636L291.294 822.678L260.508 775.113L291.385 818.214L291.462 819.478L293.93 771.835L267.571 722.68L294.25 763.462L296.796 664.684L296.806 664.356L296.806 664.679L296.413 742.576L322.609 711.682L296.303 749.284L295.63 791.944L320.096 750.993L295.536 798.215L295.162 821.936L330.669 764.934L295.027 830.211L294.2 882.959Z" fill="#3F3D56"/>
<path d="M372.019 891.648H213.606V893.522H372.019V891.648Z" fill="#3F3D56"/>
<path d="M834.758 329.935H403.576V331.81H834.758V329.935Z" fill="#3F3D56"/>
<path d="M532.379 349.619C542.215 349.619 550.188 341.646 550.188 331.81C550.188 321.974 542.215 314 532.379 314C522.543 314 514.569 321.974 514.569 331.81C514.569 341.646 522.543 349.619 532.379 349.619Z" fill="#1C58B5"/>
<path d="M224.346 677.228C222.122 677.228 219.947 676.568 218.097 675.332C216.247 674.096 214.806 672.34 213.954 670.284C213.103 668.229 212.88 665.967 213.314 663.785C213.748 661.603 214.82 659.599 216.393 658.026C217.966 656.453 219.97 655.382 222.152 654.948C224.334 654.514 226.596 654.736 228.651 655.588C230.706 656.439 232.463 657.881 233.699 659.731C234.935 661.58 235.595 663.755 235.595 665.98C235.591 668.962 234.405 671.821 232.296 673.93C230.188 676.038 227.329 677.225 224.346 677.228V677.228ZM224.346 656.606C222.492 656.606 220.68 657.156 219.139 658.186C217.597 659.216 216.396 660.68 215.686 662.393C214.977 664.105 214.791 665.99 215.153 667.808C215.515 669.627 216.407 671.297 217.718 672.608C219.029 673.919 220.699 674.811 222.518 675.173C224.336 675.535 226.221 675.349 227.933 674.64C229.646 673.93 231.11 672.729 232.14 671.187C233.17 669.646 233.72 667.834 233.72 665.98C233.717 663.495 232.729 661.112 230.971 659.355C229.214 657.598 226.831 656.609 224.346 656.606V656.606Z" fill="#3F3D56"/>
<path d="M384.149 634.994H359.778V610.623H384.149V634.994ZM361.653 633.12H382.275V612.498H361.653V633.12Z" fill="#3F3D56"/>
<path d="M627.5 968.996C858.079 968.996 1045 964.655 1045 959.299C1045 953.943 858.079 949.602 627.5 949.602C396.921 949.602 210 953.943 210 959.299C210 964.655 396.921 968.996 627.5 968.996Z" fill="#3F3D56"/>
<path d="M627.5 998.088C787.131 998.088 916.538 995.082 916.538 991.375C916.538 987.667 787.131 984.661 627.5 984.661C467.868 984.661 338.461 987.667 338.461 991.375C338.461 995.082 467.868 998.088 627.5 998.088Z" fill="#3F3D56"/>
<path d="M627.632 1025.94C757.851 1025.94 863.414 1023.49 863.414 1020.47C863.414 1017.44 757.851 1014.99 627.632 1014.99C497.414 1014.99 391.851 1017.44 391.851 1020.47C391.851 1023.49 497.414 1025.94 627.632 1025.94Z" fill="#3F3D56"/>
<path d="M833.014 782.395L831.641 811.217L897.52 833.177C897.52 833.177 894.089 796.806 896.148 793.375L833.014 782.395Z" fill="#FFB8B8"/>
<path d="M725.96 910.722L719.784 934.74H748.606V910.722H725.96Z" fill="#FFB8B8"/>
<path d="M875.561 917.107L888.599 921.702L895.461 904.471L883.795 895.281L875.561 917.107Z" fill="#A0616A"/>
<path d="M898.665 887.199C898.665 887.199 918.107 884.645 918.107 901.114C918.107 917.584 920.852 958.072 893.403 953.269C893.403 953.269 881.05 954.641 885.854 940.23C885.854 940.23 890.744 934.368 888.985 930.78C887.227 927.191 876.933 924.447 878.305 922.388C879.678 920.329 894.775 903.859 894.775 903.859L898.665 887.199Z" fill="#2F2E41"/>
<path d="M898.893 829.745L831.641 806.413L827.524 822.883C827.524 822.883 726.646 764.553 720.47 804.354C720.47 804.354 714.98 836.608 723.215 879.155L723.901 913.467C723.901 913.467 741.057 917.584 749.292 914.153L749.979 877.096C749.979 877.096 756.841 853.078 753.41 834.549C753.41 834.549 804.878 875.037 828.21 879.841C828.21 879.841 746.547 942.975 756.155 962.876C765.762 982.777 777.428 986.208 792.525 982.777C802.929 980.412 849.508 942.851 877.462 919.727C887.043 911.877 894.651 901.89 899.676 890.569C904.701 879.247 907.002 866.906 906.395 854.534C905.895 845.431 903.794 836.608 898.893 829.745Z" fill="#2F2E41"/>
<path d="M724.588 925.819C724.588 925.819 723.901 917.584 719.784 921.015C715.666 924.447 701.255 937.485 701.255 937.485C701.255 937.485 649.101 943.21 680.668 956.248C695.085 958.416 709.821 956.515 723.215 950.759C723.215 950.759 758.29 959.763 757.565 951.026C756.841 942.289 748.606 927.697 748.606 927.697C748.606 927.697 738.999 934.74 728.019 925.133L724.588 925.819Z" fill="#2F2E41"/>
<path d="M860.463 703.477C874.486 703.477 885.854 692.109 885.854 678.086C885.854 664.063 874.486 652.695 860.463 652.695C846.44 652.695 835.072 664.063 835.072 678.086C835.072 692.109 846.44 703.477 860.463 703.477Z" fill="#FFB8B8"/>
<path d="M881.05 679.459C881.05 679.459 885.168 700.046 892.716 704.85L850.856 754.259L835.072 739.162L846.738 718.574C846.738 718.574 859.777 711.026 855.659 700.732L881.05 679.459Z" fill="#FFB8B8"/>
<path d="M896.148 706.908C896.148 706.908 926.342 713.084 929.774 732.985C933.205 752.886 926.342 789.257 926.342 789.257L911.931 896.311C911.931 896.311 911.245 941.603 893.403 934.054C875.561 926.505 898.207 892.193 898.207 892.193L904.383 824.942C904.383 824.942 907.128 767.984 901.638 761.121L879.678 754.259C879.678 754.259 884.482 708.967 896.148 706.908Z" fill="#FFB8B8"/>
<path d="M846.738 718.574C846.738 718.574 826.151 717.888 813.112 734.358C800.074 750.828 768.507 763.18 768.507 763.18L689.589 794.061C689.589 794.061 675.178 768.67 666.257 777.591C657.336 786.512 682.727 809.158 694.393 806.413C706.059 803.668 776.742 782.395 776.742 782.395L833.013 757.004L846.738 718.574Z" fill="#FFB8B8"/>
<path d="M891.653 703.214C891.653 703.214 865.267 738.475 853.601 737.789C841.935 737.103 849.792 716.253 849.792 716.253L841.557 718.312C841.557 718.312 830.269 739.848 828.896 741.22C828.896 741.22 812.426 767.984 830.955 774.16L831.641 788.571C831.641 788.571 877.619 786.512 897.52 796.806L901.638 761.121C901.638 761.121 875.561 748.083 889.972 722.692C889.972 722.692 895.084 709.391 900.574 708.018L891.653 703.214Z" fill="#3F3D56"/>
<path opacity="0.1" d="M898.549 891.85L793.555 968.709C793.555 968.709 899.236 906.261 898.549 891.85Z" fill="black"/>
<path d="M886.883 680.488C887.978 680.488 888.866 678.491 888.866 676.027C888.866 673.564 887.978 671.567 886.883 671.567C885.788 671.567 884.901 673.564 884.901 676.027C884.901 678.491 885.788 680.488 886.883 680.488Z" fill="#FFB8B8"/>
<path d="M832.469 664.602C832.469 664.602 825.352 616.536 876.173 631.367C876.173 631.367 912.126 624.054 924.825 668.958L937.714 716.036L931.814 712.97L929.206 718.972L919.79 721.55L915.587 713.592L913.816 723.388L836.469 732.602C836.469 732.602 870.783 711.409 870.627 674.61L864.15 681.723L832.469 664.602Z" fill="#2F2E41"/>
<path d="M658.349 467.152L658.153 576.709L657.958 686.267L648.958 660.834V660.769L637.285 904.664C648.763 937.01 654.893 954.291 654.958 954.356C655.023 954.422 661.544 954.813 669.435 955.204C693.303 956.378 722.909 958.921 745.408 961.725C750.625 962.378 755.059 962.704 755.385 962.443C755.712 962.182 755.777 850.668 755.711 714.569L755.516 467.152H658.349V467.152Z" fill="#B1060F"/>
<path d="M482.601 466.826V714.504C482.601 850.733 482.731 962.312 482.927 962.508C483.122 962.704 491.535 961.856 501.708 960.747C511.881 959.639 525.902 958.204 532.88 957.617C543.575 956.704 575.659 954.682 579.311 954.617C580.42 954.617 580.485 949.074 580.615 849.69L580.811 744.763L588.571 766.674C589.745 770.065 590.136 771.109 591.31 774.434L602.983 530.604C600.505 523.626 601.809 527.278 599.005 519.322C589.484 492.389 581.398 469.63 581.072 468.587L580.42 466.761H482.601L482.601 466.826Z" fill="#B1060F"/>
<path d="M482.601 466.826L580.746 744.958V744.828L588.506 766.739C631.612 888.752 654.762 954.226 654.893 954.356C654.958 954.422 661.479 954.813 669.37 955.204C693.238 956.378 722.844 958.921 745.343 961.725C750.495 962.377 754.994 962.704 755.255 962.443L657.958 686.202V686.267L648.958 660.834C640.155 635.988 634.285 619.358 598.875 519.322C589.354 492.389 581.267 469.63 580.941 468.587L580.289 466.761H531.445L482.601 466.826V466.826Z" fill="#E50914"/>
</svg>
