<svg width="1340" height="1340" viewBox="0 0 1340 1340" fill="none" xmlns="http://www.w3.org/2000/svg">
<circle cx="670" cy="670" r="670" fill="#F0F0F0"/>
<path d="M1174.92 840.03C1174.94 844.098 1173.35 848.009 1170.48 850.9C1167.62 853.792 1163.73 855.429 1159.66 855.45H488.26C486.246 855.44 484.253 855.032 482.396 854.252C480.539 853.471 478.854 852.333 477.437 850.901C476.02 849.469 474.899 847.772 474.137 845.907C473.376 844.042 472.99 842.045 473 840.03V381.42C472.979 377.352 474.575 373.441 477.436 370.55C480.298 367.658 484.191 366.021 488.26 366H1159.66C1161.67 366.01 1163.67 366.418 1165.52 367.198C1167.38 367.979 1169.07 369.118 1170.48 370.549C1171.9 371.981 1173.02 373.678 1173.78 375.543C1174.54 377.408 1174.93 379.405 1174.92 381.42V381.42V840.03Z" fill="#E6E6E6"/>
<path d="M1167 832.52C1167 836.474 1165.43 840.267 1162.63 843.063C1159.84 845.859 1156.04 847.43 1152.09 847.43H496.29C492.336 847.43 488.543 845.859 485.747 843.063C482.951 840.267 481.38 836.474 481.38 832.52V389.14C481.38 385.186 482.951 381.393 485.747 378.597C488.543 375.801 492.336 374.23 496.29 374.23H1152.12C1156.07 374.238 1159.85 375.812 1162.64 378.608C1165.43 381.403 1167 385.191 1167 389.14V832.52Z" fill="white"/>
<path d="M516.43 393.48H1132.65C1135 393.48 1137.25 394.412 1138.91 396.072C1140.57 397.732 1141.5 399.983 1141.5 402.33V817.61C1141.5 819.957 1140.57 822.208 1138.91 823.868C1137.25 825.528 1135 826.46 1132.65 826.46H516.43C514.083 826.46 511.832 825.528 510.172 823.868C508.513 822.208 507.58 819.957 507.58 817.61V402.33C507.58 399.983 508.513 397.732 510.172 396.072C511.832 394.412 514.083 393.48 516.43 393.48V393.48Z" fill="#E6E6E6"/>
<path d="M524.23 403.44H1124.18C1126.53 403.44 1128.78 404.372 1130.44 406.032C1132.1 407.692 1133.03 409.943 1133.03 412.29V805.41C1133.03 807.757 1132.1 810.008 1130.44 811.668C1128.78 813.328 1126.53 814.26 1124.18 814.26H524.23C521.883 814.26 519.632 813.328 517.972 811.668C516.313 810.008 515.38 807.757 515.38 805.41V412.29C515.38 409.943 516.313 407.692 517.972 406.032C519.632 404.372 521.883 403.44 524.23 403.44V403.44Z" fill="white"/>
<path d="M947.836 676.533C945.475 676.531 943.14 676.034 940.983 675.073C940.481 674.85 940.002 674.578 939.554 674.261L895.952 643.569C893.741 642.013 891.937 639.947 890.691 637.547C889.445 635.147 888.794 632.483 888.793 629.779V587.922C888.794 585.217 889.445 582.553 890.691 580.153C891.936 577.753 893.741 575.688 895.952 574.131L939.554 543.439C940.002 543.122 940.481 542.85 940.983 542.628C943.551 541.486 946.364 541.004 949.166 541.225C951.968 541.447 954.67 542.365 957.027 543.897C959.384 545.428 961.321 547.524 962.662 549.995C964.003 552.465 964.705 555.231 964.705 558.042V659.658C964.705 664.132 962.928 668.423 959.764 671.587C956.601 674.75 952.31 676.528 947.836 676.528L947.836 676.533Z" fill="#3F3D56"/>
<path d="M850.255 684.762H728.647C703.837 684.742 683.731 668.704 683.705 648.915V568.785C683.731 548.996 703.837 532.959 728.647 532.938H850.572C875.206 532.961 895.168 548.884 895.197 568.532V648.915C895.172 668.704 875.065 684.742 850.255 684.762Z" fill="#3F3D56"/>
<path d="M1066.88 788.981C1086.85 788.981 1103.05 772.788 1103.05 752.814C1103.05 732.839 1086.85 716.646 1066.88 716.646C1046.9 716.646 1030.71 732.839 1030.71 752.814C1030.71 772.788 1046.9 788.981 1066.88 788.981Z" fill="#E6E6E6"/>
<path d="M1085.66 752.165L1056.84 735.521C1056.72 735.455 1056.59 735.421 1056.46 735.421C1056.33 735.421 1056.2 735.455 1056.09 735.521C1055.97 735.587 1055.88 735.681 1055.81 735.795C1055.75 735.909 1055.71 736.038 1055.71 736.169V769.458C1055.71 769.59 1055.75 769.719 1055.81 769.833C1055.88 769.946 1055.97 770.041 1056.09 770.107C1056.2 770.172 1056.33 770.207 1056.46 770.207C1056.59 770.207 1056.72 770.172 1056.84 770.107L1085.66 753.462C1085.78 753.396 1085.87 753.302 1085.94 753.188C1086 753.074 1086.04 752.945 1086.04 752.814C1086.04 752.682 1086 752.553 1085.94 752.439C1085.87 752.326 1085.78 752.231 1085.66 752.165L1056.84 735.521C1056.72 735.455 1056.59 735.421 1056.46 735.421C1056.33 735.421 1056.2 735.455 1056.09 735.521C1055.97 735.587 1055.88 735.681 1055.81 735.795C1055.75 735.909 1055.71 736.038 1055.71 736.169V769.458C1055.71 769.59 1055.75 769.719 1055.81 769.833C1055.88 769.946 1055.97 770.041 1056.09 770.107C1056.2 770.172 1056.33 770.207 1056.46 770.207C1056.59 770.207 1056.72 770.172 1056.84 770.107L1085.66 753.462C1085.78 753.396 1085.87 753.302 1085.94 753.188C1086 753.074 1086.04 752.945 1086.04 752.814C1086.04 752.682 1086 752.553 1085.94 752.439C1085.87 752.326 1085.78 752.231 1085.66 752.165V752.165Z" fill="white"/>
<path d="M1019.92 895.03C1019.94 899.098 1018.35 903.009 1015.48 905.9C1012.62 908.792 1008.73 910.429 1004.66 910.45H333.26C331.246 910.44 329.253 910.032 327.396 909.252C325.539 908.471 323.854 907.333 322.437 905.901C321.02 904.469 319.899 902.772 319.137 900.907C318.376 899.042 317.99 897.045 318 895.03V436.42C317.979 432.352 319.575 428.441 322.436 425.55C325.298 422.658 329.191 421.021 333.26 421H1004.66C1006.67 421.01 1008.67 421.418 1010.52 422.198C1012.38 422.979 1014.07 424.118 1015.48 425.549C1016.9 426.981 1018.02 428.678 1018.78 430.543C1019.54 432.408 1019.93 434.405 1019.92 436.42V436.42V895.03Z" fill="#E6E6E6"/>
<path d="M1012 887.52C1012 891.474 1010.43 895.267 1007.63 898.063C1004.84 900.859 1001.04 902.43 997.09 902.43H341.29C337.336 902.43 333.543 900.859 330.747 898.063C327.951 895.267 326.38 891.474 326.38 887.52V444.14C326.38 440.186 327.951 436.393 330.747 433.597C333.543 430.801 337.336 429.23 341.29 429.23H997.12C1001.07 429.238 1004.85 430.812 1007.64 433.608C1010.43 436.403 1012 440.191 1012 444.14V887.52Z" fill="white"/>
<path d="M361.43 448.48H977.65C979.997 448.48 982.248 449.412 983.908 451.072C985.568 452.732 986.5 454.983 986.5 457.33V872.61C986.5 874.957 985.568 877.208 983.908 878.868C982.248 880.528 979.997 881.46 977.65 881.46H361.43C359.083 881.46 356.832 880.528 355.172 878.868C353.513 877.208 352.58 874.957 352.58 872.61V457.33C352.58 454.983 353.513 452.732 355.172 451.072C356.832 449.412 359.083 448.48 361.43 448.48Z" fill="#E6E6E6"/>
<path d="M369.23 458.44H969.18C971.527 458.44 973.778 459.372 975.438 461.032C977.098 462.692 978.03 464.943 978.03 467.29V860.41C978.03 862.757 977.098 865.008 975.438 866.668C973.778 868.328 971.527 869.26 969.18 869.26H369.23C366.883 869.26 364.632 868.328 362.972 866.668C361.313 865.008 360.38 862.757 360.38 860.41V467.29C360.38 464.943 361.313 462.692 362.972 461.032C364.632 459.372 366.883 458.44 369.23 458.44V458.44Z" fill="white"/>
<path d="M792.836 731.533C790.475 731.531 788.14 731.034 785.983 730.073C785.481 729.85 785.002 729.578 784.554 729.261L740.952 698.569C738.741 697.013 736.937 694.947 735.691 692.547C734.445 690.147 733.794 687.483 733.793 684.779V642.922C733.794 640.217 734.445 637.553 735.691 635.153C736.936 632.753 738.741 630.688 740.952 629.131L784.554 598.439C785.002 598.122 785.481 597.85 785.983 597.628C788.551 596.486 791.364 596.004 794.166 596.225C796.968 596.447 799.67 597.365 802.027 598.897C804.384 600.428 806.321 602.524 807.662 604.995C809.003 607.465 809.705 610.231 809.705 613.042V714.658C809.705 719.132 807.928 723.423 804.764 726.587C801.601 729.75 797.31 731.528 792.836 731.528L792.836 731.533Z" fill="#3F3D56"/>
<path d="M695.255 739.762H573.647C548.837 739.742 528.731 723.704 528.705 703.915V623.785C528.731 603.996 548.837 587.959 573.647 587.938H695.572C720.206 587.961 740.168 603.884 740.197 623.532V703.915C740.172 723.704 720.065 739.742 695.255 739.762Z" fill="#3F3D56"/>
<path d="M911.879 843.981C931.854 843.981 948.047 827.788 948.047 807.814C948.047 787.839 931.854 771.646 911.879 771.646C891.905 771.646 875.712 787.839 875.712 807.814C875.712 827.788 891.905 843.981 911.879 843.981Z" fill="#E6E6E6"/>
<path d="M930.665 807.165L901.836 790.521C901.722 790.455 901.593 790.421 901.461 790.421C901.33 790.421 901.201 790.455 901.087 790.521C900.973 790.587 900.879 790.681 900.813 790.795C900.747 790.909 900.713 791.038 900.713 791.169V824.458C900.713 824.59 900.747 824.719 900.813 824.833C900.879 824.946 900.973 825.041 901.087 825.107C901.201 825.172 901.33 825.207 901.461 825.207C901.593 825.207 901.722 825.172 901.836 825.107L930.665 808.462C930.779 808.396 930.873 808.302 930.939 808.188C931.004 808.074 931.039 807.945 931.039 807.814C931.039 807.682 931.004 807.553 930.939 807.439C930.873 807.326 930.779 807.231 930.665 807.165L901.836 790.521C901.722 790.455 901.593 790.421 901.461 790.421C901.33 790.421 901.201 790.455 901.087 790.521C900.973 790.587 900.879 790.681 900.813 790.795C900.747 790.909 900.713 791.038 900.713 791.169V824.458C900.713 824.59 900.747 824.719 900.813 824.833C900.879 824.946 900.973 825.041 901.087 825.107C901.201 825.172 901.33 825.207 901.461 825.207C901.593 825.207 901.722 825.172 901.836 825.107L930.665 808.462C930.779 808.396 930.873 808.302 930.939 808.188C931.004 808.074 931.039 807.945 931.039 807.814C931.039 807.682 931.004 807.553 930.939 807.439C930.873 807.326 930.779 807.231 930.665 807.165Z" fill="white"/>
<path d="M867.92 958.03C867.941 962.098 866.346 966.009 863.484 968.9C860.622 971.792 856.729 973.429 852.661 973.45H181.26C179.246 973.44 177.253 973.032 175.396 972.252C173.539 971.471 171.854 970.333 170.437 968.901C169.02 967.469 167.899 965.772 167.137 963.907C166.376 962.042 165.99 960.045 166 958.03V499.42C165.979 495.352 167.575 491.441 170.436 488.55C173.298 485.658 177.191 484.021 181.26 484H852.66C854.675 484.01 856.667 484.418 858.524 485.198C860.382 485.979 862.067 487.118 863.484 488.549C864.901 489.981 866.022 491.678 866.783 493.543C867.544 495.408 867.931 497.405 867.92 499.42V499.42V958.03Z" fill="#E6E6E6"/>
<path d="M860 950.52C860 954.474 858.429 958.267 855.633 961.063C852.837 963.859 849.045 965.43 845.09 965.43H189.29C185.336 965.43 181.543 963.859 178.747 961.063C175.951 958.267 174.38 954.474 174.38 950.52V507.14C174.38 503.186 175.951 499.393 178.747 496.597C181.543 493.801 185.336 492.23 189.29 492.23H845.12C849.069 492.238 852.854 493.812 855.644 496.608C858.434 499.403 860 503.191 860 507.14V950.52Z" fill="white"/>
<path d="M209.43 511.48H825.65C827.997 511.48 830.248 512.412 831.908 514.072C833.568 515.732 834.5 517.983 834.5 520.33V935.61C834.5 937.957 833.568 940.208 831.908 941.868C830.248 943.528 827.997 944.46 825.65 944.46H209.43C207.083 944.46 204.832 943.528 203.172 941.868C201.513 940.208 200.58 937.957 200.58 935.61V520.33C200.58 517.983 201.513 515.732 203.172 514.072C204.832 512.412 207.083 511.48 209.43 511.48V511.48Z" fill="#E6E6E6"/>
<path d="M217.23 521.44H817.18C818.342 521.44 819.493 521.669 820.567 522.114C821.641 522.558 822.616 523.21 823.438 524.032C824.26 524.854 824.912 525.829 825.357 526.903C825.801 527.977 826.03 529.128 826.03 530.29V923.41C826.03 924.572 825.801 925.723 825.357 926.797C824.912 927.87 824.26 928.846 823.438 929.668C822.616 930.49 821.641 931.141 820.567 931.586C819.493 932.031 818.342 932.26 817.18 932.26H217.23C214.883 932.26 212.632 931.328 210.972 929.668C209.313 928.008 208.38 925.757 208.38 923.41V530.29C208.38 527.943 209.313 525.692 210.972 524.032C212.632 522.372 214.883 521.44 217.23 521.44V521.44Z" fill="white"/>
<path d="M640.836 794.533C638.475 794.531 636.14 794.034 633.983 793.073C633.481 792.85 633.002 792.578 632.554 792.261L588.952 761.569C586.741 760.013 584.937 757.947 583.691 755.547C582.445 753.147 581.794 750.483 581.793 747.779V705.922C581.794 703.217 582.445 700.553 583.691 698.153C584.936 695.753 586.741 693.688 588.952 692.131L632.554 661.439C633.002 661.122 633.481 660.85 633.983 660.628C636.551 659.486 639.364 659.004 642.166 659.225C644.968 659.447 647.67 660.365 650.027 661.897C652.384 663.428 654.321 665.524 655.662 667.995C657.003 670.465 657.705 673.231 657.705 676.042V777.658C657.705 782.132 655.928 786.423 652.764 789.587C649.601 792.75 645.31 794.528 640.836 794.528L640.836 794.533Z" fill="#1C58B5"/>
<path d="M543.255 802.762H421.647C396.837 802.742 376.731 786.704 376.705 766.915V686.785C376.731 666.996 396.837 650.959 421.647 650.938H543.572C568.206 650.961 588.168 666.884 588.197 686.532V766.915C588.172 786.704 568.065 802.742 543.255 802.762Z" fill="#1C58B5"/>
<path d="M759.879 906.981C779.854 906.981 796.047 890.788 796.047 870.814C796.047 850.839 779.854 834.646 759.879 834.646C739.905 834.646 723.712 850.839 723.712 870.814C723.712 890.788 739.905 906.981 759.879 906.981Z" fill="#3F3D56"/>
<path d="M778.665 870.165L749.836 853.521C749.722 853.455 749.593 853.421 749.461 853.421C749.33 853.421 749.201 853.455 749.087 853.521C748.973 853.587 748.879 853.681 748.813 853.795C748.747 853.909 748.713 854.038 748.713 854.169V887.458C748.713 887.59 748.747 887.719 748.813 887.833C748.879 887.946 748.973 888.041 749.087 888.107C749.201 888.172 749.33 888.207 749.461 888.207C749.593 888.207 749.722 888.172 749.836 888.107L778.665 871.462C778.779 871.396 778.873 871.302 778.939 871.188C779.004 871.074 779.039 870.945 779.039 870.814C779.039 870.682 779.004 870.553 778.939 870.439C778.873 870.326 778.779 870.231 778.665 870.165L749.836 853.521C749.722 853.455 749.593 853.421 749.461 853.421C749.33 853.421 749.201 853.455 749.087 853.521C748.973 853.587 748.879 853.681 748.813 853.795C748.747 853.909 748.713 854.038 748.713 854.169V887.458C748.713 887.59 748.747 887.719 748.813 887.833C748.879 887.946 748.973 888.041 749.087 888.107C749.201 888.172 749.33 888.207 749.461 888.207C749.593 888.207 749.722 888.172 749.836 888.107L778.665 871.462C778.779 871.396 778.873 871.302 778.939 871.188C779.004 871.074 779.039 870.945 779.039 870.814C779.039 870.682 779.004 870.553 778.939 870.439C778.873 870.326 778.779 870.231 778.665 870.165V870.165Z" fill="white"/>
</svg>
